<svg width="328" height="84" viewBox="0 0 328 84" fill="none" xmlns="http://www.w3.org/2000/svg">
<path d="M262.662 65.6912C255.262 65.6912 249.095 65.0861 244.162 63.8759C239.275 62.6657 235.598 60.7341 233.131 58.081C230.711 55.4279 229.501 51.937 229.501 47.6083C229.501 43.2796 230.711 39.7886 233.131 37.1356C235.598 34.4359 239.275 32.481 244.162 31.2708C249.095 30.0141 255.262 29.3857 262.662 29.3857C270.016 29.3857 276.113 30.0141 280.953 31.2708C285.84 32.481 289.494 34.4359 291.914 37.1356C294.334 39.7886 295.544 43.2796 295.544 47.6083C295.544 51.937 294.334 55.4279 291.914 58.081C289.494 60.7341 285.84 62.6657 280.953 63.8759C276.113 65.0861 270.016 65.6912 262.662 65.6912ZM262.662 55.5676C266.106 55.5676 268.992 55.2883 271.319 54.7297C273.646 54.1246 275.415 53.2403 276.625 52.0766C277.835 50.8665 278.44 49.377 278.44 47.6083C278.44 45.8396 277.835 44.3501 276.625 43.1399C275.461 41.9297 273.716 41.0221 271.389 40.417C269.062 39.8119 266.153 39.5094 262.662 39.5094C259.218 39.5094 256.286 39.8119 253.866 40.417C251.492 41.0221 249.677 41.9297 248.42 43.1399C247.21 44.3036 246.605 45.793 246.605 47.6083C246.605 49.377 247.21 50.8665 248.42 52.0766C249.63 53.2403 251.422 54.1246 253.796 54.7297C256.216 55.2883 259.172 55.5676 262.662 55.5676Z" fill="#F0F0F0"/>
<path d="M210.664 64.6443V51.9374C210.664 49.8428 210.245 48.0741 209.408 46.6312C208.57 45.1883 207.081 44.1177 204.94 43.4195C202.845 42.6748 199.867 42.3025 196.003 42.3025C193.816 42.3025 191.675 42.5119 189.581 42.9308C187.533 43.3032 185.671 43.7686 183.996 44.3272C182.367 44.8857 181.063 45.4443 180.086 46.0028L179.946 42.6515C180.133 41.9534 180.761 40.9061 181.831 39.5097C182.948 38.0668 184.554 36.5774 186.648 35.0414C188.743 33.4588 191.373 32.1323 194.537 31.0617C197.749 29.9446 201.542 29.3861 205.917 29.3861C208.663 29.3861 211.316 29.6421 213.876 30.1541C216.436 30.6661 218.716 31.5272 220.717 32.7374C222.765 33.901 224.394 35.4835 225.604 37.485C226.815 39.4865 227.42 41.9766 227.42 44.9555V64.6443H210.664ZM164.029 64.6443V16.4697H180.784V64.6443H164.029Z" fill="#F0F0F0"/>
<path d="M161.227 49.7726C161.227 53.1239 160.179 55.9865 158.085 58.3603C155.991 60.7341 152.686 62.5494 148.171 63.8061C143.657 65.0628 137.793 65.6912 130.578 65.6912C123.364 65.6912 117.221 65.1094 112.148 63.9457C107.121 62.7821 103.281 60.8737 100.628 58.2206C98.0221 55.5676 96.7189 52.0301 96.7189 47.6083C96.7189 43.1865 98.0221 39.649 100.628 36.9959C103.281 34.2963 107.121 32.3646 112.148 31.201C117.221 29.9908 123.364 29.3857 130.578 29.3857C137.793 29.3857 143.634 30.0141 148.102 31.2708C152.57 32.5276 155.851 34.3428 157.945 36.7166C160.04 39.0905 161.11 41.9297 161.157 45.2345H145.798C145.053 43.4192 143.378 42.0228 140.771 41.0454C138.165 40.0214 134.767 39.5094 130.578 39.5094C127.181 39.5094 124.225 39.7654 121.712 40.2774C119.199 40.7428 117.244 41.5574 115.848 42.721C114.498 43.8846 113.823 45.5137 113.823 47.6083C113.823 49.6563 114.498 51.2621 115.848 52.4257C117.198 53.5894 119.129 54.4039 121.642 54.8694C124.156 55.3348 127.134 55.5676 130.578 55.5676C134.767 55.5676 138.165 55.0788 140.771 54.1014C143.424 53.0774 145.123 51.6345 145.868 49.7726H161.227Z" fill="#F0F0F0"/>
<path d="M78.6973 52.3559H95.1733C94.7544 55.0556 93.4047 57.4061 91.1241 59.4076C88.89 61.409 85.6088 62.9683 81.2804 64.0854C76.9985 65.1559 71.5298 65.6912 64.8742 65.6912C57.8463 65.6912 51.7725 65.1326 46.6529 64.0156C41.5798 62.8985 37.6702 61.0134 34.9242 58.3603C32.1782 55.7072 30.8052 52.1232 30.8052 47.6083C30.8052 43.1399 32.1317 39.5792 34.7846 36.9261C37.4841 34.2265 41.3703 32.2948 46.4435 31.1312C51.5166 29.9676 57.6602 29.3857 64.8742 29.3857C71.9486 29.3857 77.7432 30.0141 82.2578 31.2708C86.7724 32.5276 90.1001 34.5756 92.2411 37.4148C94.382 40.2076 95.406 44.001 95.3129 48.7952H47.8397C48.0724 50.0054 48.724 51.1225 49.7945 52.1465C50.9115 53.1705 52.6103 54.0083 54.8909 54.6599C57.218 55.265 60.3131 55.5676 64.1761 55.5676C68.1787 55.5676 71.4599 55.2883 74.0198 54.7297C76.6261 54.1712 78.1853 53.3799 78.6973 52.3559ZM64.1761 39.5094C59.2426 39.5094 55.4727 40.0446 52.8663 41.1152C50.3065 42.1857 48.7938 43.2563 48.3284 44.3268H79.0463C78.7205 43.1166 77.4174 42.0228 75.1368 41.0454C72.8562 40.0214 69.2026 39.5094 64.1761 39.5094Z" fill="#F0F0F0"/>
<path d="M296.707 32.1816C301.594 33.3918 305.248 35.3467 307.668 38.0464C310.088 40.6995 311.298 44.1904 311.298 48.5191C311.298 52.8478 310.088 56.3387 307.668 58.9918C305.248 61.6449 301.594 63.5766 296.707 64.7867V32.1816Z" fill="#F0F0F0"/>
<path d="M312.524 32.1816C317.411 33.3918 321.065 35.3467 323.485 38.0464C325.905 40.6995 327.115 44.1904 327.115 48.5191C327.115 52.8478 325.905 56.3387 323.485 58.9918C321.065 61.6449 317.411 63.5766 312.524 64.7867V32.1816Z" fill="#F0F0F0"/>
<path d="M14.591 64.7871C9.70406 63.5769 6.05049 61.622 3.63029 58.9224C1.21009 56.2693 -1.33514e-05 52.7784 -1.33514e-05 48.4497C-1.33514e-05 44.1209 1.21009 40.63 3.63029 37.9769C6.05049 35.3238 9.70406 33.3922 14.591 32.182L14.591 64.7871Z" fill="#F0F0F0"/>
<path d="M29.8627 64.7871C24.9757 63.5769 21.3222 61.622 18.902 58.9224C16.4818 56.2693 15.2717 52.7784 15.2717 48.4497C15.2717 44.1209 16.4818 40.63 18.902 37.9769C21.3222 35.3238 24.9757 33.3922 29.8627 32.182L29.8627 64.7871Z" fill="#F0F0F0"/>
</svg>
