<svg width="619" height="154" viewBox="0 0 619 154" fill="none" xmlns="http://www.w3.org/2000/svg">
<path d="M561 59C569.96 61.2187 576.659 64.8027 581.096 69.752C585.533 74.616 587.752 81.016 587.752 88.952C587.752 96.888 585.533 103.288 581.096 108.152C576.659 113.016 569.96 116.557 561 118.776V59Z" fill="black"/>
<path d="M592 59C600.96 61.2187 607.659 64.8027 612.096 69.752C616.533 74.616 618.752 81.016 618.752 88.952C618.752 96.888 616.533 103.288 612.096 108.152C607.659 113.016 600.96 116.557 592 118.776V59Z" fill="black"/>
<path d="M26.752 118.776C17.792 116.557 11.0933 112.973 6.65595 108.024C2.21861 103.16 -5.34058e-05 96.76 -5.34058e-05 88.824C-5.34058e-05 80.888 2.21861 74.488 6.65595 69.624C11.0933 64.76 17.792 61.2187 26.752 59L26.752 118.776Z" fill="black"/>
<path d="M57.752 118.776C48.792 116.557 42.0933 112.973 37.656 108.024C33.2186 103.16 30.9999 96.76 30.9999 88.824C30.9999 80.888 33.2186 74.488 37.656 69.624C42.0933 64.76 48.792 61.2187 57.752 59L57.752 118.776Z" fill="black"/>
<path d="M154.288 96.472H184.496C183.728 101.421 181.253 105.731 177.072 109.4C172.976 113.069 166.96 115.928 159.024 117.976C151.173 119.939 141.147 120.92 128.944 120.92C116.059 120.92 104.923 119.896 95.536 117.848C86.2347 115.8 79.0667 112.344 74.032 107.48C68.9973 102.616 66.48 96.0453 66.48 87.768C66.48 79.576 68.912 73.048 73.776 68.184C78.7253 63.2347 85.8507 59.6933 95.152 57.56C104.453 55.4267 115.717 54.36 128.944 54.36C141.915 54.36 152.539 55.512 160.816 57.816C169.093 60.12 175.195 63.8747 179.12 69.08C183.045 74.2 184.923 81.1547 184.752 89.944H97.712C98.1387 92.1627 99.3333 94.2107 101.296 96.088C103.344 97.9653 106.459 99.5013 110.64 100.696C114.907 101.805 120.581 102.36 127.664 102.36C135.003 102.36 141.019 101.848 145.712 100.824C150.491 99.8 153.349 98.3493 154.288 96.472ZM127.664 72.92C118.619 72.92 111.707 73.9013 106.928 75.864C102.235 77.8267 99.4613 79.7893 98.608 81.752H154.928C154.331 79.5333 151.941 77.528 147.76 75.736C143.579 73.8587 136.88 72.92 127.664 72.92ZM305.602 91.736C305.602 97.88 303.682 103.128 299.842 107.48C296.002 111.832 289.943 115.16 281.666 117.464C273.389 119.768 262.637 120.92 249.41 120.92C236.183 120.92 224.919 119.853 215.618 117.72C206.402 115.587 199.362 112.088 194.498 107.224C189.719 102.36 187.33 95.8747 187.33 87.768C187.33 79.6613 189.719 73.176 194.498 68.312C199.362 63.3627 206.402 59.8213 215.618 57.688C224.919 55.4693 236.183 54.36 249.41 54.36C262.637 54.36 273.346 55.512 281.538 57.816C289.73 60.12 295.746 63.448 299.586 67.8C303.426 72.152 305.389 77.3573 305.474 83.416H277.314C275.949 80.088 272.877 77.528 268.098 75.736C263.319 73.8587 257.09 72.92 249.41 72.92C243.181 72.92 237.762 73.3893 233.154 74.328C228.546 75.1813 224.962 76.6747 222.402 78.808C219.927 80.9413 218.69 83.928 218.69 87.768C218.69 91.5227 219.927 94.4667 222.402 96.6C224.877 98.7333 228.418 100.227 233.026 101.08C237.634 101.933 243.095 102.36 249.41 102.36C257.09 102.36 263.319 101.464 268.098 99.672C272.962 97.7947 276.077 95.1493 277.442 91.736H305.602ZM396.244 119V95.704C396.244 91.864 395.476 88.6213 393.94 85.976C392.404 83.3307 389.673 81.368 385.748 80.088C381.908 78.7227 376.447 78.04 369.364 78.04C365.353 78.04 361.428 78.424 357.588 79.192C353.833 79.8747 350.42 80.728 347.348 81.752C344.361 82.776 341.972 83.8 340.18 84.824L339.924 78.68C340.265 77.4 341.417 75.48 343.38 72.92C345.428 70.2747 348.372 67.544 352.212 64.728C356.052 61.8267 360.873 59.3947 366.676 57.432C372.564 55.384 379.519 54.36 387.54 54.36C392.575 54.36 397.439 54.8293 402.132 55.768C406.825 56.7067 411.007 58.2853 414.676 60.504C418.431 62.6373 421.417 65.5387 423.636 69.208C425.855 72.8773 426.964 77.4427 426.964 82.904V119H396.244ZM310.74 119V30.68H341.46V119H310.74ZM491.58 120.92C478.012 120.92 466.705 119.811 457.66 117.592C448.7 115.373 441.959 111.832 437.436 106.968C432.999 102.104 430.78 95.704 430.78 87.768C430.78 79.832 432.999 73.432 437.436 68.568C441.959 63.6187 448.7 60.0347 457.66 57.816C466.705 55.512 478.012 54.36 491.58 54.36C505.063 54.36 516.241 55.512 525.116 57.816C534.076 60.0347 540.775 63.6187 545.212 68.568C549.649 73.432 551.868 79.832 551.868 87.768C551.868 95.704 549.649 102.104 545.212 106.968C540.775 111.832 534.076 115.373 525.116 117.592C516.241 119.811 505.063 120.92 491.58 120.92ZM491.58 102.36C497.895 102.36 503.185 101.848 507.452 100.824C511.719 99.7147 514.961 98.0933 517.18 95.96C519.399 93.7413 520.508 91.0107 520.508 87.768C520.508 84.5253 519.399 81.7947 517.18 79.576C515.047 77.3573 511.847 75.6933 507.58 74.584C503.313 73.4747 497.98 72.92 491.58 72.92C485.265 72.92 479.889 73.4747 475.452 74.584C471.1 75.6933 467.772 77.3573 465.468 79.576C463.249 81.7093 462.14 84.44 462.14 87.768C462.14 91.0107 463.249 93.7413 465.468 95.96C467.687 98.0933 470.972 99.7147 475.324 100.824C479.761 101.848 485.18 102.36 491.58 102.36Z" fill="black"/>
</svg>
